<?xml version="1.0" standalone="no"?>
<!DOCTYPE svg PUBLIC "-//W3C//DTD SVG 20010904//EN"
 "http://www.w3.org/TR/2001/REC-SVG-20010904/DTD/svg10.dtd">
<svg version="1.0" xmlns="http://www.w3.org/2000/svg"
 width="2000.000000pt" height="2000.000000pt" viewBox="0 0 2000.000000 2000.000000"
 preserveAspectRatio="xMidYMid meet">
<metadata>
Created by potrace 1.11, written by Peter Selinger 2001-2013
</metadata>
<g transform="translate(0.000000,2000.000000) scale(0.100000,-0.100000)"
fill="#000000" stroke="none">
<path d="M0 10000 l0 -10000 10000 0 10000 0 0 10000 0 10000 -10000 0 -10000
0 0 -10000z m10675 9420 c44 -5 132 -16 195 -24 81 -9 100 -14 65 -15 -51 -1
-51 -1 -53 -36 -2 -20 2 -35 8 -35 6 0 8 -5 5 -10 -3 -6 0 -17 9 -25 8 -8 18
-36 22 -61 4 -26 13 -48 21 -51 12 -5 12 -7 1 -14 -10 -7 -10 -11 -1 -17 7 -4
17 -29 23 -56 7 -31 20 -56 36 -68 16 -13 22 -24 16 -32 -5 -6 -3 -21 4 -36 8
-14 14 -20 15 -15 1 6 7 -15 14 -45 25 -109 40 -155 57 -174 9 -10 14 -25 11
-32 -4 -10 0 -12 11 -8 11 4 16 1 16 -10 0 -9 -4 -16 -10 -16 -5 0 -10 -7 -10
-15 0 -8 3 -14 8 -14 4 1 14 1 22 0 13 -1 13 -3 1 -10 -12 -8 -12 -12 3 -26
13 -13 14 -20 5 -31 -10 -12 -9 -13 4 -8 12 4 15 1 12 -14 -2 -13 5 -23 22
-31 45 -20 17 -24 -64 -8 -296 59 -802 91 -1193 76 -1617 -62 -3107 -865
-4071 -2194 -52 -72 -119 -169 -149 -217 -30 -48 -59 -88 -63 -88 -23 0 -684
470 -702 500 -6 9 104 181 216 337 426 592 967 1116 1569 1517 880 588 1826
918 2895 1011 182 16 893 13 1030 -5z m2635 -840 c13 -8 13 -10 -2 -10 -9 0
-20 5 -23 10 -8 13 5 13 25 0z m81 -57 c13 -16 12 -17 -3 -4 -17 13 -22 21
-14 21 2 0 10 -8 17 -17z m117 -72 c30 -20 62 -41 71 -46 66 -41 312 -219 395
-286 233 -189 517 -446 625 -565 24 -27 88 -96 140 -154 348 -379 661 -835
911 -1325 232 -457 385 -883 515 -1440 35 -147 79 -413 100 -605 8 -74 17
-146 20 -160 2 -14 9 -148 16 -299 11 -281 1 -723 -21 -856 -5 -33 -14 -103
-20 -155 -19 -178 -47 -350 -100 -598 -9 -44 -38 -159 -55 -222 -3 -8 -10 -37
-16 -65 -6 -27 -15 -54 -19 -60 -5 -5 -14 -39 -21 -75 -7 -35 -14 -59 -16 -53
-2 6 6 49 18 95 11 45 22 99 23 118 0 19 4 40 8 46 4 6 -2 17 -12 24 -13 9
-18 21 -14 36 3 13 0 23 -9 27 -8 3 -17 25 -21 48 -5 29 -10 39 -15 30 -6 -8
-11 3 -15 33 -4 25 -13 46 -19 46 -8 0 -11 15 -9 45 3 36 1 45 -12 45 -9 0
-18 11 -21 28 -11 51 -28 102 -35 102 -4 0 -13 26 -20 58 -7 31 -17 61 -22 67
-4 5 -8 17 -8 26 0 9 -6 19 -14 22 -8 3 -18 26 -21 51 -4 25 -11 46 -15 46
-11 0 -33 67 -26 78 3 5 -1 17 -8 28 -8 10 -12 24 -9 30 2 7 -4 15 -14 18 -14
4 -18 16 -18 50 0 33 -6 50 -22 63 -22 19 -43 80 -43 124 0 15 -7 29 -15 33
-8 3 -15 16 -15 30 0 14 -4 28 -10 31 -5 3 -10 22 -10 41 0 23 -5 34 -15 34
-10 0 -16 16 -21 51 -5 35 -11 49 -20 45 -13 -5 -24 14 -24 45 0 13 -4 18 -12
13 -7 -4 -8 -3 -4 4 12 20 -5 112 -22 112 -11 0 -13 8 -9 35 3 19 2 35 -3 35
-15 0 -20 -31 -19 -115 1 -44 -2 -100 -5 -125 -4 -25 -8 -78 -10 -117 -1 -40
-5 -75 -8 -78 -3 -3 -4 40 -2 97 15 414 -8 769 -81 1218 -8 52 -20 106 -25
120 -5 14 -12 43 -16 65 -4 22 -18 83 -31 135 -13 52 -29 113 -34 135 -5 22
-19 69 -31 105 -58 181 -90 277 -98 295 -5 11 -21 52 -36 90 -14 39 -32 84
-40 100 -7 17 -25 59 -39 95 -50 121 -174 367 -264 523 -78 135 -235 383 -251
397 -3 3 -28 37 -55 75 -27 39 -92 124 -145 189 -52 65 -106 133 -120 151 -14
18 -50 58 -80 89 -62 65 -79 89 -55 80 8 -3 15 -10 15 -15 0 -4 18 -27 39 -49
26 -28 41 -37 44 -28 3 7 6 3 6 -10 1 -12 8 -25 16 -28 8 -3 17 -14 20 -25 8
-25 20 -24 22 1 1 11 -2 18 -6 15 -14 -8 -19 44 -6 61 9 13 5 22 -23 51 -25
26 -33 42 -29 59 2 13 0 24 -4 24 -5 0 -12 18 -15 40 -4 22 -10 40 -14 40 -4
0 -11 17 -14 38 -13 72 -27 102 -47 102 -16 0 -18 5 -13 24 8 34 -4 66 -26 66
-12 0 -17 6 -14 18 3 9 -3 42 -11 72 -9 30 -17 63 -18 72 -1 9 -5 14 -9 12 -4
-3 -10 18 -14 46 -4 28 -11 53 -15 56 -5 3 -9 16 -9 30 0 17 -5 24 -20 24 -16
0 -20 7 -20 36 0 20 -9 51 -19 68 -11 17 -25 54 -31 81 -6 27 -16 53 -23 57
-7 4 -12 28 -12 53 0 25 -1 41 -3 35 -2 -5 -10 -10 -18 -10 -10 0 -14 12 -14
40 0 27 -4 40 -14 40 -8 0 -16 16 -20 40 -6 41 -9 47 -39 108 -9 19 -17 45
-17 58 0 14 -4 33 -9 42 -4 9 -11 29 -15 45 -5 21 -3 27 11 27 14 0 13 3 -5
16 -13 9 -26 13 -29 10 -4 -3 -1 -6 5 -6 16 0 15 -17 -1 -23 -15 -5 -16 20 -3
41 4 7 2 12 -4 12 -9 0 -76 45 -117 80 -7 5 -28 17 -47 27 -20 9 -36 21 -36
25 0 11 27 -4 98 -51z m-2221 13 c-3 -3 -12 -4 -19 -1 -8 3 -5 6 6 6 11 1 17
-2 13 -5z m2285 -136 c-6 -6 -7 0 -4 19 5 21 7 23 10 9 2 -10 0 -22 -6 -28z
m163 -418 c3 -5 1 -10 -4 -10 -6 0 -11 5 -11 10 0 6 2 10 4 10 3 0 8 -4 11
-10z m71 -782 l29 -32 -32 25 c-18 13 -32 27 -32 32 -1 12 4 8 35 -25z m177
-175 c53 -60 22 -34 -63 54 -57 59 -65 69 -25 33 33 -30 73 -70 88 -87z m94
95 c-3 -8 -6 -5 -6 6 -1 11 2 17 5 13 3 -3 4 -12 1 -19z m-10329 -486 c109
-98 354 -303 492 -410 58 -45 112 -88 120 -95 8 -7 42 -33 75 -57 33 -25 69
-53 79 -62 11 -10 24 -18 30 -18 5 0 7 -3 4 -6 -6 -6 -52 20 -76 43 -16 15
-15 15 -36 7 -14 -5 -14 -9 -4 -23 12 -14 11 -14 -4 -3 -15 12 -17 11 -16 -5
0 -10 -1 -23 -3 -29 -2 -7 0 -12 6 -12 5 0 13 -10 17 -22 6 -16 14 -21 28 -17
11 3 20 1 20 -4 0 -5 -11 -9 -24 -9 -24 0 -24 0 -9 -40 9 -22 19 -40 23 -40 3
0 4 -14 2 -31 -3 -20 -1 -29 5 -26 6 4 13 -11 17 -35 4 -23 12 -45 18 -49 6
-4 16 -22 23 -40 7 -19 16 -42 20 -51 5 -14 2 -18 -14 -18 -12 0 -21 -6 -21
-16 0 -10 5 -12 13 -7 21 13 39 12 33 -3 -3 -7 2 -17 11 -22 10 -6 16 -26 17
-58 2 -38 7 -50 20 -52 14 -3 17 -12 14 -42 -2 -26 0 -36 8 -33 7 3 15 -12 19
-37 5 -28 11 -40 20 -36 11 4 24 -39 29 -97 1 -5 9 -14 19 -21 9 -7 17 -18 17
-24 0 -6 8 -16 18 -21 9 -6 13 -11 9 -11 -4 0 -3 -8 2 -18 7 -14 6 -19 -4 -19
-8 0 -12 4 -9 9 3 4 -3 5 -12 1 -15 -5 -13 -10 12 -30 16 -12 35 -23 42 -23 6
0 12 -5 12 -11 0 -5 6 -7 13 -4 6 4 3 -1 -7 -9 -19 -16 -19 -16 2 -16 12 0 22
5 22 12 0 6 3 8 6 5 4 -4 1 -13 -6 -22 -8 -10 -9 -15 -1 -15 6 0 10 -4 9 -9
-2 -5 5 -17 14 -28 10 -10 43 -44 73 -76 30 -32 55 -61 55 -65 0 -14 -249 250
-346 368 -16 19 -36 42 -44 50 -98 100 -435 569 -567 790 -28 47 -60 101 -72
120 -11 19 -26 46 -33 60 -7 14 -15 27 -18 30 -4 3 -22 37 -42 75 -20 39 -60
117 -90 175 -73 142 -128 260 -122 260 3 0 45 -35 92 -78z m910 -730 c15 -13
20 -20 12 -16 -28 15 -100 65 -100 70 0 8 57 -27 88 -54z m7750 -169 c-10 -2
-26 -2 -35 0 -10 3 -2 5 17 5 19 0 27 -2 18 -5z m-125 -24 c-18 -5 -33 -14
-33 -20 0 -6 7 -9 15 -5 11 4 15 -2 15 -25 0 -16 6 -32 14 -35 7 -3 19 -33 26
-67 7 -34 17 -67 22 -73 4 -6 6 -19 2 -28 -4 -11 -1 -16 11 -16 9 0 13 -4 10
-10 -3 -5 1 -10 11 -10 14 0 15 -2 3 -17 -12 -15 -12 -16 3 -11 17 7 28 -16
28 -64 0 -15 5 -30 10 -33 6 -3 10 -19 10 -36 0 -16 4 -29 9 -29 5 0 7 -10 3
-22 -4 -16 -2 -20 10 -16 11 5 13 -1 10 -23 -3 -17 0 -29 7 -29 6 0 11 -9 11
-20 0 -11 5 -20 11 -20 7 0 8 -11 4 -30 -5 -24 -3 -30 10 -30 9 0 13 -4 10
-10 -3 -5 -1 -10 6 -10 6 0 9 -8 6 -19 -3 -13 2 -21 17 -26 18 -6 19 -8 4 -12
-22 -6 -24 -23 -3 -23 8 0 15 -7 15 -15 0 -23 24 -95 31 -95 4 0 5 -9 2 -20
-3 -11 0 -20 6 -20 6 0 11 -7 11 -15 0 -8 4 -15 9 -15 5 0 9 -6 8 -12 -1 -42
4 -68 13 -63 6 3 10 -1 10 -9 0 -9 6 -16 13 -16 7 0 13 -16 14 -41 0 -23 7
-45 13 -49 7 -4 9 -13 6 -19 -4 -6 -1 -18 7 -26 9 -8 18 -33 22 -55 4 -22 11
-40 17 -40 6 0 8 -9 5 -20 -3 -12 1 -33 9 -48 8 -15 14 -33 14 -39 0 -7 5 -13
10 -13 6 0 10 -13 10 -30 0 -20 5 -30 15 -30 8 0 17 -14 21 -35 3 -19 10 -35
15 -35 5 0 6 -16 3 -36 l-6 -37 69 6 c56 5 61 4 28 -4 -22 -5 -67 -13 -100
-19 -33 -5 -71 -12 -85 -16 -34 -8 -236 -31 -400 -45 -186 -17 -956 -17 -1185
-1 -542 39 -1051 103 -1565 197 -80 15 -148 30 -152 34 -14 12 123 173 276
326 232 231 496 433 800 610 181 106 523 261 701 317 377 120 602 168 945 201
19 2 60 4 90 4 50 1 52 0 23 -8z m-7108 -169 c3 -5 1 -10 -4 -10 -6 0 -11 5
-11 10 0 6 2 10 4 10 3 0 8 -4 11 -10z m95 -71 c0 -5 5 -9 11 -9 6 0 43 -21
82 -46 40 -25 107 -68 150 -95 166 -106 483 -298 627 -379 489 -276 857 -465
1275 -655 249 -114 229 -105 535 -229 270 -110 816 -303 1000 -354 19 -6 105
-30 190 -55 434 -126 961 -238 1395 -296 273 -36 318 -41 610 -62 248 -18 344
-20 660 -16 352 5 709 28 900 57 39 5 120 17 180 26 61 8 153 22 205 30 52 8
102 13 110 10 8 -2 2 -4 -15 -5 -44 -2 -57 -14 -49 -44 3 -15 9 -27 14 -27 4
0 13 -19 19 -42 7 -23 20 -47 28 -53 9 -7 16 -29 17 -53 0 -26 5 -42 13 -42 6
0 15 -5 19 -12 4 -7 3 -8 -4 -4 -7 4 -12 2 -12 -3 0 -6 5 -11 11 -11 6 0 9 -7
5 -15 -3 -9 0 -15 10 -15 10 0 13 -7 8 -25 -4 -18 -1 -27 11 -31 9 -4 14 -13
10 -22 -3 -8 0 -21 6 -28 6 -8 9 -21 5 -29 -3 -9 0 -15 8 -15 8 0 12 -8 9 -23
-3 -13 1 -30 9 -38 16 -16 38 -86 38 -119 0 -36 9 -19 15 30 3 24 10 49 16 55
13 11 13 17 -20 -170 -19 -107 -59 -294 -86 -405 -24 -102 -85 -335 -94 -360
-5 -14 -21 -65 -36 -115 -50 -163 -116 -358 -160 -470 -13 -33 -39 -100 -58
-150 -330 -846 -857 -1692 -1457 -2340 -486 -525 -1067 -993 -1670 -1346 -250
-147 -302 -176 -506 -276 -242 -120 -329 -159 -504 -230 -74 -30 -148 -60
-165 -68 -16 -7 -43 -17 -60 -21 -16 -4 -40 -14 -52 -22 -12 -7 -28 -12 -35
-9 -8 4 -6 6 5 6 9 1 17 6 17 11 0 6 7 10 16 10 10 0 14 6 10 15 -3 8 -1 15 3
15 5 0 11 7 15 15 4 13 2 13 -14 5 -23 -12 -41 -13 -21 -1 8 6 10 14 5 22 -5
8 -7 21 -6 31 2 9 -2 19 -8 23 -5 3 -10 20 -10 37 0 22 -4 29 -14 25 -11 -5
-16 7 -22 49 -3 30 -10 54 -14 54 -8 0 -30 45 -30 62 0 7 5 6 15 -2 9 -7 15
-8 15 -2 0 5 -6 12 -14 15 -8 3 -17 20 -21 37 -5 24 -10 29 -20 20 -10 -8 -17
-6 -28 10 -13 19 -18 20 -37 10 -12 -6 -24 -9 -28 -6 -3 3 -1 6 5 6 23 0 466
341 693 534 356 303 742 695 1033 1051 695 849 1171 1837 1372 2850 50 250 87
503 75 510 -3 2 -78 6 -166 9 -366 13 -747 48 -1149 106 -510 74 -1087 200
-1560 340 -38 11 -99 29 -135 40 -283 84 -720 246 -1065 394 -359 155 -986
494 -1200 647 -22 16 -53 37 -70 46 -24 13 -236 161 -280 196 -5 4 -19 15 -30
23 -20 15 -20 15 1 11 17 -4 20 -1 17 14 -3 11 -9 19 -15 19 -5 0 -3 10 3 23
9 18 9 20 -2 10 -16 -16 -29 -17 -29 -2 0 5 5 7 10 4 10 -6 15 9 10 30 -1 5
-3 25 -6 43 -2 18 -9 42 -14 52 -6 10 -10 28 -10 39 0 14 -5 19 -14 15 -17 -7
-37 53 -32 95 2 14 1 20 -1 14 -2 -7 -8 -13 -12 -13 -4 0 -8 6 -9 13 -1 6 -4
23 -6 37 -2 14 -5 28 -5 32 -1 4 -8 5 -16 2 -8 -4 -15 -1 -15 5 0 6 5 11 10
11 6 0 10 7 10 15 0 8 -6 12 -13 9 -8 -3 -14 2 -14 10 0 8 6 17 14 20 17 7 17
26 -1 26 -8 0 -18 14 -21 33 -4 17 -13 35 -19 39 -6 4 -12 12 -12 18 -1 5 -2
15 -3 20 0 6 -8 10 -16 10 -8 0 -14 3 -13 8 4 16 -14 92 -23 92 -5 0 -6 14 -2
32 4 20 2 29 -4 25 -12 -7 -33 57 -33 99 0 22 -3 26 -10 14 -7 -12 -11 -8 -16
17 -4 18 -10 30 -15 27 -5 -3 -5 5 0 18 6 18 3 26 -16 41 -14 11 -22 26 -19
34 4 8 3 20 -1 26 -4 7 -8 14 -8 17 -1 3 -9 22 -19 43 -15 30 -16 41 -7 47 9
5 6 9 -9 13 -16 4 -20 11 -16 25 9 27 -13 72 -36 72 -11 0 -18 7 -18 18 0 19
-43 63 -73 75 -9 3 -17 10 -17 15 0 5 -13 15 -30 22 -16 7 -30 16 -30 21 0 5
16 -1 35 -12 19 -12 35 -25 35 -30z m9223 -176 c-7 -2 -21 -2 -30 0 -10 3 -4
5 12 5 17 0 24 -2 18 -5z m-120 -20 c-7 -2 -19 -2 -25 0 -7 3 -2 5 12 5 14 0
19 -2 13 -5z m-11082 -283 c345 -465 890 -1018 1434 -1455 274 -220 531 -403
875 -623 36 -23 74 -48 85 -57 10 -8 25 -15 31 -15 7 0 16 -5 19 -11 4 -5 -10
-3 -31 6 -21 9 -41 20 -44 26 -8 13 -40 1 -62 -23 -14 -17 -15 -22 -2 -46 8
-15 14 -38 14 -50 0 -16 7 -26 21 -29 20 -6 21 -11 17 -67 -3 -34 -3 -51 -1
-38 2 12 9 22 15 22 6 0 8 -10 4 -25 -5 -18 -2 -27 9 -32 9 -3 14 -12 11 -20
-3 -8 -2 -12 3 -9 8 6 27 -76 23 -100 -2 -7 4 -14 12 -17 16 -6 40 -103 29
-120 -4 -7 1 -6 10 2 23 18 25 14 30 -44 3 -28 8 -49 11 -47 14 6 36 -28 36
-54 0 -15 5 -44 11 -63 11 -35 19 -56 55 -135 14 -31 15 -42 5 -58 -7 -11 -10
-22 -7 -25 3 -3 8 2 12 11 10 27 21 18 29 -21 4 -21 11 -43 17 -50 5 -7 7 -17
4 -22 -4 -6 2 -8 13 -6 14 3 19 -2 18 -15 -1 -10 -5 -16 -10 -13 -5 3 -7 0 -5
-8 3 -8 11 -13 17 -12 6 2 11 -2 11 -8 0 -6 7 -9 14 -6 10 4 13 1 10 -8 -4 -8
7 -17 30 -25 20 -6 36 -15 36 -20 0 -5 10 -12 23 -16 28 -9 69 -35 63 -41 -4
-4 -70 33 -201 112 -18 11 -63 38 -100 60 -37 22 -74 45 -83 50 -15 9 -295
199 -346 235 -495 347 -1056 888 -1413 1362 -283 376 -537 826 -703 1243 -17
44 -38 96 -46 115 -28 71 -104 300 -104 314 0 12 -7 20 101 -124z m1789 -295
c13 -14 21 -25 18 -25 -2 0 -15 11 -28 25 -13 14 -21 25 -18 25 2 0 15 -11 28
-25z m677 -575 c29 -19 50 -36 48 -39 -5 -4 -60 32 -105 70 -31 26 -10 14 57
-31z m7560 -696 c-3 -3 -12 -4 -19 -1 -8 3 -5 6 6 6 11 1 17 -2 13 -5z m120
-376 c-3 -7 -5 -2 -5 12 0 14 2 19 5 13 2 -7 2 -19 0 -25z m1990 -155 c-2 -16
-4 -5 -4 22 0 28 2 40 4 28 2 -13 2 -35 0 -50z m-2020 -25 c-3 -8 -6 -5 -6 6
-1 11 2 17 5 13 3 -3 4 -12 1 -19z m2250 -40 c-3 -8 -6 -5 -6 6 -1 11 2 17 5
13 3 -3 4 -12 1 -19z m-240 -70 c-2 -13 -4 -5 -4 17 -1 22 1 32 4 23 2 -10 2
-28 0 -40z m-9012 -296 c-6 -6 -75 21 -75 29 0 4 18 0 39 -9 22 -9 38 -19 36
-20z m195 -90 c36 -16 99 -44 140 -62 41 -18 93 -40 115 -50 60 -27 323 -130
331 -130 3 0 20 -7 37 -15 84 -38 641 -219 782 -254 22 -5 112 -28 200 -51
604 -155 1260 -250 1938 -281 147 -7 267 -16 267 -19 0 -16 -92 -325 -124
-415 -39 -110 -102 -279 -116 -310 -5 -11 -39 -90 -76 -175 -331 -767 -807
-1471 -1384 -2051 -224 -225 -376 -360 -550 -492 -41 -31 -82 -62 -90 -70 -8
-8 -22 -17 -30 -22 -8 -4 6 12 31 36 44 42 53 69 23 69 -8 0 -14 10 -14 23 0
18 2 19 10 7 8 -13 10 -12 10 3 0 9 -6 17 -14 17 -16 0 -29 27 -20 41 3 6 0
17 -7 25 -6 8 -13 31 -15 51 -1 20 -10 40 -19 45 -8 5 -13 13 -10 18 9 14 -14
60 -30 60 -21 0 -19 38 3 42 15 3 14 6 -5 23 -13 11 -23 27 -23 37 0 10 -8 18
-17 19 -11 0 -13 3 -6 6 15 6 7 48 -15 78 -11 15 -13 16 -9 3 7 -21 -9 -34
-16 -14 -3 8 -3 25 0 38 l6 23 -21 -25 c-12 -14 -29 -34 -38 -45 -14 -19 -14
-19 -3 5 6 14 37 70 69 125 31 55 67 120 80 145 12 25 45 88 72 140 224 433
421 963 523 1410 14 63 33 142 41 176 8 33 14 65 14 71 0 5 -42 20 -92 32
-242 59 -757 217 -865 267 -17 7 -36 14 -41 14 -9 0 -354 135 -407 159 -11 6
-38 17 -60 27 -61 25 -111 48 -208 93 -49 23 -92 41 -98 41 -5 0 -9 4 -9 8 0
5 -18 14 -41 21 -23 7 -39 14 -37 16 7 7 82 -18 99 -32 8 -7 22 -13 30 -13 12
0 12 2 0 9 -7 5 -10 14 -7 20 4 6 -3 15 -18 21 -23 8 -26 15 -26 55 0 38 -4
47 -22 55 -19 7 -20 9 -5 9 22 1 17 26 -15 79 -12 19 -21 51 -22 73 0 25 -5
39 -14 39 -9 0 -11 7 -7 20 5 14 2 20 -10 20 -9 0 -13 5 -10 11 10 16 -4 59
-19 59 -8 0 -16 7 -20 15 -3 10 1 15 11 15 18 0 8 15 -10 15 -7 0 -11 11 -10
23 2 13 -3 22 -11 22 -10 0 -12 7 -9 21 4 14 0 27 -12 35 -10 7 -15 20 -12 29
4 8 2 15 -4 15 -5 0 -9 6 -8 13 4 23 -13 87 -22 81 -5 -3 -10 19 -10 48 -1 29
-3 45 -6 36 -8 -31 -23 -19 -23 17 0 21 -6 38 -14 41 -14 5 -32 80 -29 119 1
11 -1 14 -3 8 -9 -22 -26 -14 -19 8 5 15 4 19 -5 14 -7 -4 -10 -2 -9 6 4 21
-12 89 -22 95 -5 3 -9 0 -9 -5 0 -19 -18 -12 -25 8 -3 11 -15 23 -26 26 -10 4
-17 10 -14 15 3 4 31 -5 62 -20 32 -16 87 -41 123 -58z m-825 69 c3 -5 1 -12
-5 -16 -5 -3 -10 1 -10 9 0 18 6 21 15 7z m9542 -243 c-3 -8 -6 -5 -6 6 -1 11
2 17 5 13 3 -3 4 -12 1 -19z m-11092 -78 c54 -57 316 -287 445 -391 146 -117
309 -239 480 -357 80 -56 155 -108 167 -116 12 -9 62 -98 111 -198 196 -399
453 -789 736 -1118 94 -109 453 -475 517 -526 20 -16 88 -72 150 -124 63 -53
141 -116 174 -140 33 -25 62 -47 65 -50 3 -3 31 -23 63 -45 59 -40 87 -66 48
-46 -12 7 -26 9 -31 6 -5 -3 -7 1 -4 9 3 9 -2 17 -15 21 -12 3 -21 11 -21 16
0 5 -5 9 -12 9 -6 0 -22 10 -35 22 -21 19 -26 20 -34 8 -9 -12 -10 -12 -5 3 6
19 -2 21 -24 7 -15 -9 -22 -80 -7 -80 4 0 7 -6 7 -12 1 -7 12 -26 25 -43 25
-30 25 -30 31 -7 4 12 10 22 14 22 5 0 6 -9 3 -20 -3 -11 -9 -20 -14 -20 -5 0
-9 -9 -9 -21 0 -13 4 -18 13 -13 8 5 7 2 -2 -9 -10 -13 -17 -15 -27 -6 -11 9
-14 7 -14 -10 0 -23 25 -29 33 -8 7 16 29 -13 23 -29 -3 -8 3 -10 17 -6 12 3
16 7 9 10 -6 2 -12 8 -12 14 0 6 7 8 15 4 8 -3 15 -1 15 4 0 5 6 15 14 22 7 8
21 28 30 46 9 18 19 32 21 32 9 0 -10 -37 -53 -105 -25 -38 -66 -104 -92 -145
-27 -41 -62 -95 -79 -120 -147 -209 -231 -320 -243 -320 -17 0 -255 175 -423
310 -681 549 -1254 1262 -1637 2037 -51 103 -101 206 -110 228 -9 22 -33 78
-53 125 -96 222 -200 529 -267 780 -41 155 -98 404 -98 427 0 9 56 -36 95 -77z
m2031 -538 c-6 -5 -56 21 -56 29 0 5 13 0 29 -9 16 -9 28 -18 27 -20z m139
-72 c3 -6 -1 -7 -9 -4 -18 7 -21 14 -7 14 6 0 13 -4 16 -10z m9615 -26 c0 -8
-5 -12 -10 -9 -6 4 -8 11 -5 16 9 14 15 11 15 -7z m-40 -128 c0 -3 -4 -8 -10
-11 -5 -3 -10 -1 -10 4 0 6 5 11 10 11 6 0 10 -2 10 -4z m-33 -88 c-3 -8 -6
-5 -6 6 -1 11 2 17 5 13 3 -3 4 -12 1 -19z m-1576 -1105 c-6 -12 -5 -21 7 -31
15 -12 15 -12 -4 -7 -14 3 -26 -1 -35 -12 -13 -17 -13 -17 5 -3 18 14 18 13
12 -8 -5 -13 -3 -22 3 -22 6 0 11 5 11 12 0 22 12 0 17 -33 3 -18 12 -39 21
-47 10 -7 11 -11 5 -7 -9 4 -13 -1 -13 -15 0 -12 4 -19 9 -16 5 4 12 -8 16
-26 11 -57 16 -68 29 -68 7 0 20 -32 31 -79 13 -51 23 -76 28 -68 5 7 6 -3 3
-24 -5 -26 -3 -38 7 -42 13 -5 31 -59 28 -83 -1 -7 5 -14 14 -18 8 -3 15 -14
15 -25 0 -24 20 -71 31 -71 4 0 13 -25 19 -55 6 -30 15 -53 20 -50 5 3 7 -6 4
-20 -3 -19 0 -25 13 -25 15 0 15 -2 -3 -14 -18 -14 -17 -15 19 -30 20 -9 37
-21 37 -26 0 -24 -296 -322 -490 -493 -265 -234 -487 -402 -757 -575 -757
-482 -1567 -777 -2480 -903 -90 -12 -126 -8 -90 12 24 14 191 144 340 267 284
234 662 598 890 859 54 62 108 115 120 119 82 25 392 182 592 299 547 320
1055 760 1475 1277 56 69 68 81 51 51z m389 -872 c0 -5 -7 -12 -16 -15 -14 -5
-15 -4 -4 9 14 17 20 19 20 6z m-7696 -267 c3 -8 2 -12 -4 -9 -6 3 -10 10 -10
16 0 14 7 11 14 -7z m471 -963 c-3 -6 -11 -11 -16 -11 -5 0 -4 6 3 14 14 16
24 13 13 -3z m-35 -51 c-6 -12 -14 -19 -17 -17 -2 3 1 15 7 27 6 12 14 19 17
17 2 -3 -1 -15 -7 -27z m-40 -55 c-9 -11 -10 -18 -1 -29 9 -11 7 -13 -11 -12
-13 0 -23 -3 -23 -9 0 -5 -4 -17 -9 -25 -7 -12 -6 -13 5 -2 18 17 34 15 20 -2
-9 -11 -9 -16 0 -22 8 -4 9 -3 5 4 -12 20 3 13 31 -12 15 -14 30 -23 35 -20 4
3 8 -2 8 -10 0 -20 -16 -21 -24 -1 -3 8 -11 15 -17 15 -8 0 -6 -6 4 -17 8 -10
21 -40 28 -66 6 -27 18 -51 25 -54 10 -4 11 -10 3 -25 -13 -24 -1 -40 12 -16
5 10 16 15 24 12 8 -4 15 -2 15 4 0 6 14 15 31 21 50 17 48 13 -11 -20 -30
-17 -62 -37 -70 -44 -16 -14 -221 -134 -317 -186 -114 -62 -375 -190 -379
-186 -2 2 53 64 122 138 142 152 278 312 409 480 50 64 92 112 93 107 2 -5 -2
-15 -8 -23z m26 -23 c1 -7 0 -8 -3 -2 -2 5 -9 8 -14 4 -5 -3 -9 0 -9 6 0 15
23 7 26 -8z m41 -164 c-3 -8 -6 -5 -6 6 -1 11 2 17 5 13 3 -3 4 -12 1 -19z
m173 -43 c-14 -8 -29 -14 -35 -14 -5 0 1 6 15 14 14 8 30 14 35 14 6 0 -1 -6
-15 -14z m270 -665 c-8 -5 -19 -10 -25 -10 -5 0 -3 5 5 10 8 5 20 10 25 10 6
0 3 -5 -5 -10z m-65 -40 c-3 -5 -12 -10 -18 -10 -7 0 -6 4 3 10 19 12 23 12
15 0z m-55 -35 c-13 -14 -29 -25 -35 -25 -7 0 -20 -9 -29 -19 -17 -19 -17 -19
6 -14 l23 5 -24 -14 c-13 -7 -23 -16 -22 -20 0 -5 1 -17 1 -28 0 -11 7 -20 15
-20 9 0 15 -9 15 -22 0 -13 6 -46 14 -75 13 -49 13 -51 -7 -57 -12 -3 -18 -8
-15 -11 3 -4 21 1 38 10 32 16 33 16 28 -2 -3 -12 0 -20 8 -20 7 0 11 4 8 9
-3 4 -1 8 5 8 13 0 34 -38 26 -49 -2 -5 -29 -14 -57 -21 -29 -6 -62 -15 -73
-20 -133 -57 -933 -242 -1230 -285 -49 -7 -51 -8 165 86 209 90 621 295 765
379 37 22 118 67 165 92 19 10 78 45 130 78 52 32 97 59 99 59 3 1 -6 -10 -19
-24z m-35 -85 c3 -5 1 -10 -4 -10 -6 0 -11 5 -11 10 0 6 2 10 4 10 3 0 8 -4
11 -10z m715 -4 c0 -3 -4 -8 -10 -11 -5 -3 -10 -1 -10 4 0 6 5 11 10 11 6 0
10 -2 10 -4z m-53 -62 c-3 -3 -12 -4 -19 -1 -8 3 -5 6 6 6 11 1 17 -2 13 -5z
m-417 -145 c-19 -5 -43 -14 -53 -20 -10 -5 -22 -7 -27 -4 -5 3 -11 1 -15 -5
-3 -5 -16 -10 -27 -10 -19 0 -18 13 0 16 4 0 14 3 22 7 26 10 94 25 115 25 11
0 4 -4 -15 -9z m-1103 -1310 c104 -50 157 -167 157 -349 1 -96 -1 -110 -28
-165 -19 -40 -56 -86 -107 -137 l-78 -77 20 -25 c75 -95 64 -203 -43 -409 -54
-104 -114 -169 -191 -207 -129 -63 -130 -63 -921 -67 l-719 -4 6 23 c4 13 122
341 264 731 l258 707 669 0 c659 0 670 0 713 -21z m1594 0 c60 -60 82 -161
183 -819 47 -305 88 -570 91 -588 l6 -32 -248 2 -247 3 -28 144 c-15 79 -29
145 -30 147 -2 1 -30 -33 -63 -78 -33 -44 -89 -112 -125 -149 l-65 -69 -583 0
c-548 0 -582 1 -582 18 0 9 232 314 515 677 364 465 534 675 577 713 l62 52
258 0 c249 0 259 -1 279 -21z m1352 -291 c-62 -171 -112 -314 -111 -318 2 -4
202 136 446 312 l442 318 295 -2 294 -3 -470 -359 c-258 -198 -469 -362 -469
-364 0 -2 117 -165 260 -363 143 -197 260 -360 260 -363 0 -4 -132 -6 -293 -6
l-293 0 -263 320 c-145 176 -267 322 -271 325 -4 2 -61 -142 -126 -320 l-119
-325 -263 0 -264 0 6 23 c3 12 121 340 263 730 l258 707 266 0 266 0 -114
-312z m3067 304 c0 -18 -126 -185 -204 -270 -86 -93 -44 -86 -535 -92 l-433
-5 -73 -200 c-40 -110 -71 -202 -68 -205 2 -2 57 49 121 113 l118 117 318 -2
319 -3 -191 -180 -192 -180 -276 -5 -276 -5 -29 -77 -28 -78 524 0 c289 0 525
-2 525 -5 0 -14 -77 -125 -123 -177 -27 -32 -85 -89 -129 -128 l-79 -70 -691
0 -690 0 6 23 c3 12 121 340 263 730 l258 707 782 0 c431 0 783 -3 783 -8z
m1515 -16 c111 -51 174 -189 174 -381 1 -274 -200 -438 -597 -488 l-103 -12
265 -273 c146 -150 266 -274 266 -277 0 -3 -132 -5 -292 -5 l-293 0 -280 260
c-154 142 -285 259 -291 260 -20 0 -28 -19 -119 -272 l-89 -248 -264 0 -264 0
6 23 c3 12 121 340 263 730 l258 707 655 0 655 0 50 -24z m-11923 -3625 l3
-349 225 349 225 348 218 1 217 0 0 -22 c0 -26 39 -594 43 -620 1 -10 96 131
210 312 l209 330 244 0 243 0 -107 -167 c-453 -703 -724 -1119 -768 -1179 -85
-117 -79 -114 -273 -114 -91 0 -171 4 -177 8 -31 21 -43 83 -78 397 -13 119
-26 218 -28 220 -2 2 -93 -125 -203 -282 -110 -156 -214 -298 -233 -314 l-33
-29 -177 2 -177 3 -20 40 c-19 39 -20 63 -23 728 l-3 687 230 0 231 0 2 -349z
m3528 340 c0 -28 -208 -283 -268 -329 l-35 -27 -435 -5 -434 -5 -73 -200 c-40
-110 -71 -202 -68 -205 2 -2 57 49 121 113 l118 117 319 -2 319 -3 -192 -180
-192 -180 -276 -5 -276 -5 -29 -77 -28 -78 524 0 c289 0 525 -2 525 -5 0 -14
-77 -125 -123 -177 -27 -32 -85 -89 -129 -128 l-79 -70 -691 0 -690 0 5 22 c4
13 122 341 264 731 l258 707 782 0 c466 0 783 -4 783 -9z m1537 -12 c104 -50
157 -167 157 -349 1 -96 -1 -110 -28 -165 -19 -40 -56 -86 -107 -137 l-78 -77
20 -25 c75 -95 64 -203 -43 -409 -54 -104 -114 -169 -191 -207 -129 -63 -130
-63 -921 -67 l-719 -4 6 23 c4 13 122 341 264 731 l258 707 669 0 c659 0 670
0 713 -21z m2594 11 c76 -21 157 -101 179 -178 32 -107 20 -244 -32 -389 -31
-87 -143 -268 -254 -409 -135 -174 -319 -315 -496 -381 -203 -77 -355 -93
-872 -93 l-368 0 5 22 c4 13 122 341 264 731 l258 707 640 0 c398 0 654 -4
676 -10z m2059 1 c0 -28 -208 -283 -268 -329 l-35 -27 -435 -5 -434 -5 -73
-200 c-40 -110 -71 -202 -68 -205 2 -2 57 49 121 113 l118 117 318 -2 319 -3
-191 -180 -192 -180 -276 -5 -276 -5 -29 -77 -28 -78 524 0 c289 0 525 -2 525
-5 0 -14 -77 -125 -123 -177 -27 -32 -85 -89 -129 -128 l-79 -70 -691 0 -690
0 6 22 c3 13 121 341 263 731 l258 707 782 0 c466 0 783 -4 783 -9z m1810 1
c0 -15 -136 -179 -223 -269 l-90 -93 -456 0 c-506 0 -489 2 -517 -66 -20 -48
-18 -60 19 -86 31 -23 38 -23 347 -28 l315 -5 46 -27 c120 -71 198 -227 199
-399 0 -161 -123 -363 -270 -444 l-55 -30 -732 -3 c-403 -1 -733 1 -733 6 0
22 174 256 249 335 l35 37 487 0 c549 0 499 -8 499 84 0 90 19 85 -345 88
-312 3 -321 4 -368 26 -133 66 -229 226 -231 387 -1 74 2 86 40 165 73 151
171 258 284 309 44 20 63 21 773 21 400 0 727 -3 727 -8z m686 -9 c-3 -10
-122 -337 -265 -728 l-259 -710 -267 -3 c-222 -2 -266 0 -262 11 5 13 512
1408 522 1435 3 9 67 12 270 12 249 0 266 -1 261 -17z m1743 0 c-66 -87 -212
-253 -262 -298 l-60 -55 -366 0 c-232 0 -380 -4 -405 -11 -88 -24 -199 -182
-227 -320 -9 -46 -8 -66 5 -111 32 -112 138 -233 225 -259 20 -5 76 -9 125 -7
l88 3 29 79 c16 44 29 81 29 83 0 2 -70 3 -155 3 -153 0 -156 0 -145 20 20 38
162 221 217 281 l55 59 335 0 334 0 -7 -22 c-4 -13 -80 -216 -170 -453 l-162
-430 -284 0 c-380 1 -524 23 -694 105 -153 74 -261 189 -312 333 -37 106 -42
271 -13 387 72 285 288 529 541 611 50 16 109 18 674 18 587 1 618 0 605 -16z
m921 -370 c40 -214 76 -393 79 -400 3 -6 71 168 151 388 l145 399 263 0 c144
0 262 -3 262 -7 -1 -5 -119 -332 -264 -728 l-263 -720 -328 -3 c-181 -1 -332
1 -336 5 -4 5 -41 185 -81 400 -40 216 -75 393 -78 393 -3 0 -70 -180 -150
-400 l-144 -400 -264 0 -264 0 6 22 c3 13 121 341 263 731 l258 707 335 0 336
0 74 -387z"/>
<path d="M10850 19386 c0 -2 7 -9 15 -16 13 -11 14 -10 9 4 -5 14 -24 23 -24
12z"/>
<path d="M14219 16778 c-5 -9 -4 -56 1 -52 5 6 8 54 3 54 -2 0 -4 -1 -4 -2z"/>
<path d="M14276 16658 c3 -4 9 -8 15 -8 5 0 9 4 9 8 0 5 -7 9 -15 9 -8 0 -12
-4 -9 -9z"/>
<path d="M14300 16610 c-8 -5 -10 -10 -4 -10 6 0 16 -10 22 -22 8 -18 11 -19
11 -6 1 9 -4 20 -9 23 -6 4 -8 11 -5 16 8 11 4 11 -15 -1z"/>
<path d="M14375 16570 c3 -5 8 -10 11 -10 2 0 4 5 4 10 0 6 -5 10 -11 10 -5 0
-7 -4 -4 -10z"/>
<path d="M14376 16523 c-6 -14 -5 -15 5 -6 7 7 10 15 7 18 -3 3 -9 -2 -12 -12z"/>
<path d="M15452 13524 c1 -17 8 -31 15 -31 9 0 11 7 7 21 -11 37 -25 43 -22
10z"/>
<path d="M16085 11800 c-3 -5 -1 -10 4 -10 6 0 11 5 11 10 0 6 -2 10 -4 10 -3
0 -8 -4 -11 -10z"/>
<path d="M4333 16035 c0 -8 4 -12 9 -9 5 3 6 10 3 15 -9 13 -12 11 -12 -6z"/>
<path d="M4370 16009 c0 -5 6 -7 13 -4 6 4 3 -1 -7 -9 -11 -9 -25 -16 -30 -17
-6 0 5 -6 24 -13 19 -7 38 -11 43 -9 14 8 7 43 -12 53 -25 13 -31 13 -31 -1z"/>
<path d="M4385 15919 c-4 -6 -5 -12 -2 -15 2 -3 7 2 10 11 7 17 1 20 -8 4z"/>
<path d="M4391 15854 c0 -11 3 -14 6 -6 3 7 2 16 -1 19 -3 4 -6 -2 -5 -13z"/>
<path d="M4421 15794 c0 -11 3 -14 6 -6 3 7 2 16 -1 19 -3 4 -6 -2 -5 -13z"/>
<path d="M4451 15693 c-1 -17 16 -25 25 -12 4 7 3 9 -4 5 -5 -3 -13 0 -15 6
-4 9 -6 10 -6 1z"/>
<path d="M4476 15523 c-6 -14 -5 -15 5 -6 7 7 10 15 7 18 -3 3 -9 -2 -12 -12z"/>
<path d="M4625 15240 c3 -5 8 -10 11 -10 2 0 4 5 4 10 0 6 -5 10 -11 10 -5 0
-7 -4 -4 -10z"/>
<path d="M4667 15140 c-3 -11 -1 -20 4 -20 5 0 9 9 9 20 0 11 -2 20 -4 20 -2
0 -6 -9 -9 -20z"/>
<path d="M8530 6896 c0 -8 4 -17 9 -20 5 -4 7 3 4 14 -6 23 -13 26 -13 6z"/>
<path d="M5510 12844 c0 -8 5 -12 10 -9 6 3 10 10 10 16 0 5 -4 9 -10 9 -5 0
-10 -7 -10 -16z"/>
<path d="M5570 12824 c0 -31 21 -45 43 -29 15 11 16 13 2 19 -8 3 -18 5 -21 5
-4 0 -11 5 -15 13 -6 9 -9 7 -9 -8z"/>
<path d="M5580 12704 c0 -10 5 -26 10 -34 8 -11 9 -7 4 15 -8 37 -14 45 -14
19z"/>
<path d="M5611 12574 c0 -11 3 -14 6 -6 3 7 2 16 -1 19 -3 4 -6 -2 -5 -13z"/>
<path d="M5711 12333 c0 -5 4 -17 9 -28 8 -18 9 -17 9 8 1 15 -3 27 -9 27 -5
0 -10 -3 -9 -7z"/>
<path d="M5762 12170 c0 -14 2 -19 5 -12 2 6 2 18 0 25 -3 6 -5 1 -5 -13z"/>
<path d="M5796 12121 c-4 -7 -5 -15 -2 -18 9 -9 19 4 14 18 -4 11 -6 11 -12 0z"/>
<path d="M5811 12064 c0 -11 3 -14 6 -6 3 7 2 16 -1 19 -3 4 -6 -2 -5 -13z"/>
<path d="M6875 11309 c-11 -16 -1 -19 13 -3 7 8 8 14 3 14 -5 0 -13 -5 -16
-11z"/>
<path d="M6930 9089 c0 -5 5 -7 10 -4 6 3 10 8 10 11 0 2 -4 4 -10 4 -5 0 -10
-5 -10 -11z"/>
<path d="M6968 9081 c7 -4 12 -13 10 -18 -2 -6 0 -11 5 -12 23 -3 25 1 10 19
-10 11 -22 20 -28 20 -5 0 -4 -4 3 -9z"/>
<path d="M6970 8931 c0 -6 5 -13 10 -16 6 -3 10 1 10 9 0 9 -4 16 -10 16 -5 0
-10 -4 -10 -9z"/>
<path d="M7040 8770 c-9 -6 -10 -10 -3 -10 6 0 15 5 18 10 8 12 4 12 -15 0z"/>
<path d="M14657 9181 c-3 -12 2 -26 12 -33 15 -12 15 -11 1 6 -14 18 -13 19 3
13 20 -8 23 6 3 22 -11 9 -15 7 -19 -8z"/>
<path d="M7413 7759 c-2 -23 3 -25 10 -4 4 8 3 16 -1 19 -4 3 -9 -4 -9 -15z"/>
<path d="M7420 7690 c0 -5 5 -10 10 -10 6 0 10 5 10 10 0 6 -4 10 -10 10 -5 0
-10 -4 -10 -10z"/>
<path d="M7846 6582 c-3 -5 1 -9 9 -9 8 0 12 4 9 9 -3 4 -7 8 -9 8 -2 0 -6 -4
-9 -8z"/>
<path d="M5946 4918 c-85 -226 -131 -367 -117 -355 9 8 68 60 131 116 l115
101 221 0 222 0 31 48 c17 27 31 53 31 58 0 5 -13 24 -29 42 l-30 32 -280 0
-279 0 -16 -42z"/>
<path d="M5738 4343 l-34 -88 279 -3 279 -2 50 27 c53 29 88 80 88 128 l0 25
-314 0 -314 0 -34 -87z"/>
<path d="M7941 4576 c-124 -166 -226 -307 -229 -314 -3 -9 62 -12 276 -12 262
0 280 1 276 18 -2 9 -22 143 -44 297 -23 154 -44 287 -48 296 -5 12 -67 -64
-231 -285z"/>
<path d="M13460 4818 c-29 -79 -63 -172 -77 -208 l-24 -65 118 118 118 117
228 0 c130 0 236 4 247 10 21 11 40 60 40 106 0 68 18 64 -305 64 l-293 0 -52
-142z"/>
<path d="M6616 1618 c-85 -226 -131 -367 -117 -355 9 8 68 60 131 116 l115
101 221 0 222 0 31 48 c17 27 31 53 31 58 0 5 -13 24 -29 42 l-30 32 -280 0
-279 0 -16 -42z"/>
<path d="M6408 1043 l-34 -88 279 -3 279 -2 50 27 c53 29 88 80 88 128 l0 25
-314 0 -314 0 -34 -87z"/>
<path d="M9289 1633 c-6 -16 -62 -167 -124 -338 -62 -170 -117 -319 -121 -329
-7 -18 -3 -19 77 -14 188 13 449 151 572 303 61 75 129 215 135 277 6 58 -13
107 -45 119 -13 5 -128 9 -254 9 l-229 0 -11 -27z"/>
</g>
</svg>
